<svg xmlns="http://www.w3.org/2000/svg" xmlns:xlink="http://www.w3.org/1999/xlink" width="521" zoomAndPan="magnify" viewBox="0 0 390.75 188.249992" height="251" preserveAspectRatio="xMidYMid meet" version="1.0"><defs><g/></defs><g fill="#ff5757" fill-opacity="1"><g transform="translate(-7.139102, 140.327043)"><g><path d="M 50.09375 1.359375 C 40.945312 1.359375 34.144531 -2.0625 29.6875 -8.90625 L 28.328125 -8.640625 L 28.328125 0 L 10.328125 0 L 10.328125 -100.4375 L 28.328125 -100.4375 L 28.328125 -63.203125 L 29.6875 -62.953125 C 32.15625 -66.367188 35.066406 -68.898438 38.421875 -70.546875 C 41.785156 -72.191406 45.804688 -73.015625 50.484375 -73.015625 C 56.285156 -73.015625 61.347656 -71.648438 65.671875 -68.921875 C 70.003906 -66.191406 73.382812 -62.046875 75.8125 -56.484375 C 78.238281 -50.921875 79.453125 -44.023438 79.453125 -35.796875 C 79.453125 -27.648438 78.195312 -20.796875 75.6875 -15.234375 C 73.175781 -9.671875 69.707031 -5.515625 65.28125 -2.765625 C 60.863281 -0.015625 55.800781 1.359375 50.09375 1.359375 Z M 44.625 -13.90625 C 49.914062 -13.90625 53.945312 -15.664062 56.71875 -19.1875 C 59.488281 -22.71875 60.875 -28.253906 60.875 -35.796875 C 60.875 -43.378906 59.488281 -48.929688 56.71875 -52.453125 C 53.945312 -55.984375 49.914062 -57.75 44.625 -57.75 C 39.5625 -57.75 35.546875 -55.929688 32.578125 -52.296875 C 29.609375 -48.660156 28.125 -43.160156 28.125 -35.796875 C 28.125 -28.429688 29.609375 -22.941406 32.578125 -19.328125 C 35.546875 -15.710938 39.5625 -13.90625 44.625 -13.90625 Z M 44.625 -13.90625 "/></g></g></g><g fill="#5271ff" fill-opacity="1"><g transform="translate(69.478768, 140.327043)"><g><path d="M 12.34375 0 L 12.34375 -94.984375 L 50.484375 -94.984375 C 60.304688 -94.984375 67.71875 -92.71875 72.71875 -88.1875 C 77.726562 -83.664062 80.234375 -77.421875 80.234375 -69.453125 C 80.234375 -63.691406 78.769531 -58.96875 75.84375 -55.28125 C 72.914062 -51.601562 68.550781 -48.789062 62.75 -46.84375 L 62.75 -45.46875 C 65.738281 -44.175781 68.15625 -42.25 70 -39.6875 C 71.84375 -37.132812 73.585938 -33.347656 75.234375 -28.328125 L 84.71875 0 L 65.421875 0 L 56.125 -28.390625 C 55.175781 -31.242188 54.101562 -33.460938 52.90625 -35.046875 C 51.71875 -36.628906 50.203125 -37.773438 48.359375 -38.484375 C 46.523438 -39.203125 44.132812 -39.5625 41.1875 -39.5625 L 31.125 -39.5625 L 31.125 0 Z M 48.203125 -54.4375 C 57.296875 -54.4375 61.84375 -58.679688 61.84375 -67.171875 C 61.84375 -75.785156 57.296875 -80.09375 48.203125 -80.09375 L 31.125 -80.09375 L 31.125 -54.4375 Z M 48.203125 -54.4375 "/></g></g></g><g fill="#ffde59" fill-opacity="1"><g transform="translate(158.285312, 140.327043)"><g><path d="M 70.8125 -31.765625 L 24.75 -31.765625 C 25.269531 -25.523438 27.046875 -20.988281 30.078125 -18.15625 C 33.109375 -15.320312 37.242188 -13.90625 42.484375 -13.90625 C 46.597656 -13.90625 49.929688 -14.671875 52.484375 -16.203125 C 55.046875 -17.742188 57.101562 -20.070312 58.65625 -23.1875 L 60.03125 -23.1875 L 71.984375 -15.53125 C 69.640625 -10.5 66.109375 -6.425781 61.390625 -3.3125 C 56.671875 -0.195312 50.367188 1.359375 42.484375 1.359375 C 35.078125 1.359375 28.675781 -0.046875 23.28125 -2.859375 C 17.894531 -5.671875 13.738281 -9.859375 10.8125 -15.421875 C 7.894531 -20.992188 6.4375 -27.785156 6.4375 -35.796875 C 6.4375 -43.941406 7.972656 -50.804688 11.046875 -56.390625 C 14.117188 -61.972656 18.273438 -66.140625 23.515625 -68.890625 C 28.753906 -71.640625 34.644531 -73.015625 41.1875 -73.015625 C 51.320312 -73.015625 59.082031 -70.328125 64.46875 -64.953125 C 69.863281 -59.585938 72.5625 -51.707031 72.5625 -41.3125 C 72.5625 -37.550781 72.429688 -34.628906 72.171875 -32.546875 Z M 55.34375 -43.390625 C 55.175781 -48.847656 53.910156 -52.820312 51.546875 -55.3125 C 49.191406 -57.800781 45.738281 -59.046875 41.1875 -59.046875 C 32.09375 -59.046875 26.742188 -53.828125 25.140625 -43.390625 Z M 55.34375 -43.390625 "/></g></g></g><g fill="#00bf63" fill-opacity="1"><g transform="translate(236.191265, 140.327043)"><g><path d="M 27.9375 1.359375 C 23.34375 1.359375 19.351562 0.515625 15.96875 -1.171875 C 12.59375 -2.859375 9.992188 -5.335938 8.171875 -8.609375 C 6.359375 -11.878906 5.453125 -15.8125 5.453125 -20.40625 C 5.453125 -24.644531 6.359375 -28.203125 8.171875 -31.078125 C 9.992188 -33.960938 12.8125 -36.320312 16.625 -38.15625 C 20.4375 -40 25.421875 -41.421875 31.578125 -42.421875 C 35.859375 -43.117188 39.113281 -43.878906 41.34375 -44.703125 C 43.582031 -45.523438 45.085938 -46.453125 45.859375 -47.484375 C 46.640625 -48.523438 47.03125 -49.847656 47.03125 -51.453125 C 47.03125 -53.742188 46.226562 -55.492188 44.625 -56.703125 C 43.03125 -57.921875 40.367188 -58.53125 36.640625 -58.53125 C 32.648438 -58.53125 28.859375 -57.640625 25.265625 -55.859375 C 21.671875 -54.085938 18.554688 -51.753906 15.921875 -48.859375 L 14.609375 -48.859375 L 7.078125 -60.21875 C 10.710938 -64.25 15.148438 -67.390625 20.390625 -69.640625 C 25.640625 -71.890625 31.359375 -73.015625 37.546875 -73.015625 C 47.035156 -73.015625 53.898438 -71 58.140625 -66.96875 C 62.390625 -62.945312 64.515625 -57.234375 64.515625 -49.828125 L 64.515625 -18.703125 C 64.515625 -15.503906 65.921875 -13.90625 68.734375 -13.90625 C 69.816406 -13.90625 70.878906 -14.097656 71.921875 -14.484375 L 72.828125 -14.234375 L 74.125 -1.6875 C 73.125 -1.039062 71.734375 -0.507812 69.953125 -0.09375 C 68.179688 0.3125 66.238281 0.515625 64.125 0.515625 C 59.832031 0.515625 56.484375 -0.304688 54.078125 -1.953125 C 51.679688 -3.597656 49.960938 -6.171875 48.921875 -9.671875 L 47.546875 -9.8125 C 44.046875 -2.363281 37.507812 1.359375 27.9375 1.359375 Z M 33.65625 -12.078125 C 37.8125 -12.078125 41.132812 -13.472656 43.625 -16.265625 C 46.113281 -19.066406 47.359375 -22.957031 47.359375 -27.9375 L 47.359375 -35.203125 L 46.125 -35.46875 C 45.039062 -34.601562 43.617188 -33.878906 41.859375 -33.296875 C 40.109375 -32.710938 37.585938 -32.140625 34.296875 -31.578125 C 30.398438 -30.921875 27.597656 -29.800781 25.890625 -28.21875 C 24.179688 -26.644531 23.328125 -24.40625 23.328125 -21.5 C 23.328125 -18.425781 24.234375 -16.085938 26.046875 -14.484375 C 27.867188 -12.878906 30.40625 -12.078125 33.65625 -12.078125 Z M 33.65625 -12.078125 "/></g></g></g><g fill="#ffbd59" fill-opacity="1"><g transform="translate(311.758329, 140.327043)"><g><path d="M 35.40625 1.359375 C 29.726562 1.359375 24.710938 -0.015625 20.359375 -2.765625 C 16.015625 -5.515625 12.609375 -9.671875 10.140625 -15.234375 C 7.671875 -20.796875 6.4375 -27.648438 6.4375 -35.796875 C 6.4375 -43.984375 7.703125 -50.859375 10.234375 -56.421875 C 12.765625 -61.984375 16.269531 -66.140625 20.75 -68.890625 C 25.238281 -71.640625 30.425781 -73.015625 36.3125 -73.015625 C 40.769531 -73.015625 44.632812 -72.242188 47.90625 -70.703125 C 51.175781 -69.171875 53.9375 -66.78125 56.1875 -63.53125 L 57.5625 -63.859375 L 57.5625 -100.4375 L 75.546875 -100.4375 L 75.546875 0 L 57.5625 0 L 57.5625 -9.296875 L 56.1875 -9.546875 C 54.195312 -6.171875 51.46875 -3.507812 48 -1.5625 C 44.539062 0.382812 40.34375 1.359375 35.40625 1.359375 Z M 41.25 -13.90625 C 46.320312 -13.90625 50.328125 -15.710938 53.265625 -19.328125 C 56.210938 -22.941406 57.6875 -28.429688 57.6875 -35.796875 C 57.6875 -43.160156 56.210938 -48.660156 53.265625 -52.296875 C 50.328125 -55.929688 46.320312 -57.75 41.25 -57.75 C 35.96875 -57.75 31.929688 -55.984375 29.140625 -52.453125 C 26.347656 -48.929688 24.953125 -43.378906 24.953125 -35.796875 C 24.953125 -28.253906 26.347656 -22.71875 29.140625 -19.1875 C 31.929688 -15.664062 35.96875 -13.90625 41.25 -13.90625 Z M 41.25 -13.90625 "/></g></g></g></svg>